<svg xmlns="http://www.w3.org/2000/svg" width="256" height="256" viewBox="0 0 100 100"><rect width="100" height="100" rx="20" fill="#aa485d"></rect><path fill="#fff" d="M34.16 22.42L66.56 22.42Q68.63 23.59 68.63 26.02L68.63 26.02Q68.63 27.82 67.64 29.80L67.64 29.80L45.05 77.50Q44.51 77.59 44.02 77.59Q43.52 77.59 42.98 77.59L42.98 77.59Q41.18 77.59 39.96 76.73Q38.75 75.88 38.75 74.34L38.75 74.34Q38.75 73.27 39.16 72.23Q39.56 71.20 40.28 69.84L40.28 69.84L60.62 28.54L32.18 28.54Q31.91 28.09 31.64 27.37Q31.37 26.65 31.37 25.66L31.37 25.66Q31.37 24.13 32.09 23.27Q32.81 22.42 34.16 22.42L34.16 22.42Z"></path></svg>